Coordinates
version=1
nRows=29
nColumns=24
inDegrees=yes

Units are S.I. units (second, meters, Newtons, ...)
Angles are in degrees.

endheader
time	pelvis_tilt	pelvis_list	pelvis_rotation	pelvis_tx	pelvis_ty	pelvis_tz	hip_flexion_r	hip_adduction_r	hip_rotation_r	knee_angle_r	ankle_angle_r	subtalar_angle_r	mtp_angle_r	hip_flexion_l	hip_adduction_l	hip_rotation_l	knee_angle_l	ankle_angle_l	subtalar_angle_l	mtp_angle_l	lumbar_extension	lumbar_bending	lumbar_rotation
      1.86000000	     15.19097896	      3.58946169	     -5.61519986	      0.52764786	      0.94575815	      0.33189595	      4.47915765	     -7.75496512	     -0.20966326	    -65.62628700	     19.18650284	      5.50936765	     44.48781402	     -6.04214250	     10.20442399	     -5.42767285	    -19.78200496	     21.99209167	      4.04023239	     14.52643699	    -30.28307493	     -6.40970138	      8.75151563
      1.86500000	     15.31540263	      3.54861117	     -5.42363950	      0.53428573	      0.94664663	      0.33190640	      4.91654969	     -7.66762520	     -0.40251818	    -64.97254494	     19.46602351	      5.65809200	     44.49606503	     -6.98366279	     10.12442410	     -5.44811399	    -19.17202039	     22.16793206	      4.68065451	     14.47607730	    -30.37185871	     -6.25780369	      8.50760065
      1.87000000	     15.47891890	      3.48265776	     -5.22986562	      0.54089263	      0.94754056	      0.33182536	      5.28317121	     -7.57755659	     -0.64292147	    -64.24160053	     19.73062945	      5.78590613	     44.49602014	     -7.95964929	     10.02356175	     -5.47068621	    -18.55247200	     22.35213267	      5.28474012	     14.36682832	    -30.50266781	     -6.06941783	      8.34057910
      1.87500000	     15.58706544	      3.44523497	     -4.99916906	      0.54744976	      0.94828372	      0.33184498	      5.68384927	     -7.49214824	     -0.89811631	    -63.44721247	     19.98510183	      5.85669269	     44.45684053	     -8.83334570	      9.92420029	     -5.40554640	    -18.00869794	     22.51680848	      5.87133673	     14.22810343	    -30.56856638	     -5.91144510	      8.12663235
      1.88000000	     15.78716385	      3.38498684	     -4.77465468	      0.55415031	      0.94908936	      0.33164746	      5.91895360	     -7.43434995	     -1.20135098	    -62.53357446	     20.44396256	      6.18688957	     43.44734667	     -9.84317884	      9.83260902	     -5.29857800	    -17.42292458	     22.76427852	      6.45843233	     13.05287678	    -30.73161470	     -5.70279975	      7.97187645
      1.88500000	     15.93243387	      3.38507176	     -4.65989989	      0.56079871	      0.94966524	      0.33154220	      6.27416338	     -7.42571712	     -1.35059257	    -61.64857195	     20.71908309	      6.49808464	     43.48951582	    -10.79842978	      9.83566720	     -5.18791711	    -16.78982895	     22.86417733	      6.79371109	     12.98646181	    -30.82784582	     -5.60285332	      7.80737198
      1.89000000	     16.08306730	      3.41826053	     -4.57499500	      0.56734671	      0.95014285	      0.33159625	      6.61515073	     -7.44986081	     -1.49017724	    -60.72475603	     20.98821026	      6.63034030	     43.50789490	    -11.79028700	      9.87310028	     -5.04920868	    -16.07448430	     22.95014756	      7.11807389	     12.92289039	    -30.93142181	     -5.57848001	      7.64024874
      1.89500000	     16.26524736	      3.38154460	     -4.43969794	      0.57385729	      0.95061824	      0.33161467	      6.84379978	     -7.38400585	     -1.61915977	    -59.63066611	     21.29122732	      6.85298232	     43.48266996	    -12.79965612	      9.83031645	     -4.85566156	    -15.39870767	     23.06707549	      7.36160440	     12.83066256	    -31.08172637	     -5.45327492	      7.47555840
      1.90000000	     16.45065067	      3.31780696	     -4.27304028	      0.58044675	      0.95111796	      0.33152820	      7.04075471	     -7.30818421	     -1.82764486	    -58.50994904	     21.39041784	      6.96397226	     43.49432540	    -13.82159668	      9.75273159	     -4.62335546	    -14.71088338	     23.07787083	      7.55803391	     12.74034482	    -31.22971752	     -5.26509564	      7.37050138
      1.90500000	     16.66250420	      3.31217711	     -4.08841930	      0.58700572	      0.95146358	      0.33145158	      7.21106861	     -7.30702720	     -2.05949264	    -57.40281739	     21.55350379	      7.24274501	     43.44642224	    -14.87460688	      9.73371553	     -4.31715901	    -14.02964219	     23.15438160	      7.69619587	     12.61746811	    -31.41124103	     -5.13613963	      7.15659179
      1.91000000	     16.82215976	      3.30288519	     -3.77499362	      0.59365501	      0.95166683	      0.33117556	      7.32915996	     -7.28727377	     -2.39664296	    -56.15791731	     21.62751531	      7.23325581	     43.33861721	    -15.86518876	      9.67928150	     -3.93183380	    -13.38663085	     23.25616651	      7.81494915	     12.47393217	    -31.53401258	     -4.95267921	      6.83477980
      1.91500000	     16.98168486	      3.25784848	     -3.59888680	      0.60019778	      0.95182075	      0.33101957	      7.48074501	     -7.20957115	     -2.60658686	    -54.87796515	     21.66919577	      7.15561535	     43.24014596	    -16.85447974	      9.62895491	     -3.58104314	    -12.71115791	     23.24392146	      7.78959592	     12.40664457	    -31.65709303	     -4.80057630	      6.69992098
      1.92000000	     16.98895507	      3.28672521	     -3.54797595	      0.60633986	      0.95158997	      0.33109464	      7.85335470	     -7.21339293	     -2.63344604	    -53.59838317	     21.78676510	      7.60147936	     43.03512286	    -17.60899386	      9.66654564	     -3.28873574	    -12.05457024	     23.35485564	      7.73538762	     12.25473494	    -31.65574045	     -4.75588352	      6.66222493
      1.92500000	     17.05567712	      3.24625611	     -3.40663668	      0.61269504	      0.95136760	      0.33096903	      8.10533795	     -7.15800083	     -2.85769883	    -52.24619046	     21.74969933	      7.50519066	     42.90026201	    -18.41006202	      9.61857604	     -3.07388066	    -11.53695994	     23.44627425	      7.86759796	     12.11531215	    -31.71303822	     -4.59608915	      6.59566551
      1.93000000	     17.22747520	      3.17281636	     -3.18460484	      0.61927837	      0.95130464	      0.33101608	      8.14741726	     -7.01819926	     -3.08339314	    -50.79204379	     21.58076112	      7.16084590	     42.83327672	    -19.32873765	      9.48015461	     -2.92453452	    -11.01891572	     23.56476310	      8.03996751	     11.92321180	    -31.85006780	     -4.41647530	      6.46297806
      1.93500000	     17.33839280	      3.12500577	     -3.00399975	      0.62569147	      0.95100924	      0.33098466	      8.25544367	     -6.93292390	     -3.27286637	    -49.31062030	     21.49907152	      7.12240803	     42.87276667	    -20.13216976	      9.38505839	     -2.76390210	    -10.56951775	     23.82085860	      8.14668619	     11.74996121	    -31.94078848	     -4.26051218	      6.30071444
      1.94000000	     17.47963006	      3.09392660	     -2.87876518	      0.63204651	      0.95063280	      0.33110136	      8.33064915	     -6.84123542	     -3.40333242	    -47.78997792	     21.44746382	      6.97806922	     42.91079207	    -20.94543133	      9.31282669	     -2.63575147	    -10.16724063	     24.00311047	      8.36416574	     11.41626892	    -32.07267713	     -4.13875281	      6.18808770
      1.94500000	     17.58263332	      3.03636484	     -2.74549292	      0.63845438	      0.95014963	      0.33108918	      8.39676279	     -6.74486145	     -3.61272936	    -46.18879146	     21.32421707	      6.86559600	     42.96185601	    -21.72464345	      9.22377011	     -2.43504366	     -9.75639998	     24.21084181	      8.49879266	     10.92158170	    -32.16069041	     -3.98564790	      6.17896265
      1.95000000	     17.54723787	      2.99008944	     -2.62454214	      0.64480691	      0.94944745	      0.33110646	      8.61649881	     -6.61924362	     -3.66471436	    -44.55363417	     21.11634499	      6.67048547	     42.96061638	    -22.29485229	      9.14628518	     -2.20677130	     -9.44611201	     24.42352886	      8.47977470	     10.79346988	    -32.10144308	     -3.85470544	      6.17388462
      1.95500000	     17.65520445	      2.91679400	     -2.52817140	      0.65130688	      0.94890488	      0.33133197	      8.62264680	     -6.46586626	     -3.80793734	    -42.84813041	     20.91007208	      6.44229428	     42.98590876	    -23.05416446	      9.03169245	     -2.06790529	     -9.07613528	     24.63185653	      8.59034430	     10.67649813	    -32.17978076	     -3.72007317	      6.09975325
      1.96000000	     17.70498872	      2.84105276	     -2.37440240	      0.65765951	      0.94824748	      0.33148155	      8.64839127	     -6.29952193	     -3.93483315	    -41.07200146	     20.56158025	      6.01834919	     43.07048836	    -23.71225421	      8.88904989	     -1.79869146	     -8.77892171	     24.88970429	      8.57300108	     10.51252581	    -32.22439124	     -3.55963202	      5.96630679
      1.96500000	     17.78953937	      2.73753486	     -2.23479708	      0.66387896	      0.94758051	      0.33166378	      8.57672203	     -6.08430934	     -3.94759595	    -39.15178963	     20.27285029	      5.65553472	     43.27838011	    -24.30992866	      8.71388735	     -1.64561117	     -8.67754805	     25.29735022	      8.76187363	     10.11514242	    -32.33112073	     -3.39016740	      5.96998940
      1.97000000	     17.84177369	      2.68994602	     -2.07433785	      0.66998031	      0.94683108	      0.33175859	      8.55522021	     -5.95003229	     -4.05761313	    -37.27983682	     19.99147488	      5.22301550	     43.36413451	    -24.86081810	      8.59091728	     -1.40737802	     -8.56453248	     25.57320387	      8.87818744	      9.95047790	    -32.40388142	     -3.24304116	      5.87879412
      1.97500000	     17.86043233	      2.70510948	     -1.88924454	      0.67611235	      0.94601958	      0.33184992	      8.56786189	     -5.90340172	     -4.27965024	    -35.43439370	     19.71997288	      4.92263039	     43.53331426	    -25.35215543	      8.51467538	     -1.13351374	     -8.48632891	     25.90054567	      8.86884237	      9.86411256	    -32.44347233	     -3.15237753	      5.70945177
      1.98000000	     17.86260847	      2.71693972	     -1.67675418	      0.68219084	      0.94514566	      0.33208518	      8.57363233	     -5.83763887	     -4.49128389	    -33.56262632	     19.46794923	      4.53385126	     43.45549052	    -25.78122344	      8.40621039	     -0.92888007	     -8.49853159	     26.22964155	      8.94227310	      9.82581592	    -32.46928225	     -3.07059763	      5.56054929
      1.98500000	     18.00625599	      2.67293050	     -1.51602302	      0.68834937	      0.94443836	      0.33232699	      8.34567622	     -5.68446124	     -4.58489782	    -31.56112024	     19.25216451	      4.26834984	     43.42258586	    -26.37743197	      8.25981630	     -0.83265569	     -8.49023614	     26.53975120	      9.17129185	      9.73688948	    -32.64156715	     -2.94479555	      5.46510785
      1.99000000	     17.90919580	      2.69697978	     -1.29174457	      0.69457220	      0.94343459	      0.33247927	      8.33765554	     -5.61436882	     -4.71960640	    -29.49915787	     18.86491572	      4.21820538	     43.46708584	    -26.64752458	      8.15077416	     -0.63563752	     -8.61888682	     26.87559910	      9.33990106	      9.69509764	    -32.55603809	     -2.86017462	      5.27982041
      1.99500000	     18.00110428	      2.65321285	     -1.23058981	      0.70072129	      0.94257927	      0.33276057	      8.11326597	     -5.44464314	     -4.63545789	    -27.39174480	     18.40737070	      4.26717861	     44.07323125	    -27.18186875	      8.04929358	     -0.63424383	     -8.61375033	     27.19700411	      9.59523020	      9.43039768	    -32.68095108	     -2.77378998	      5.23780557
      2.00000000	     17.83090496	      2.73105535	     -1.04202116	      0.70664857	      0.94138269	      0.33300821	      8.17850233	     -5.40460215	     -4.58022952	    -25.35150983	     17.96808152	      4.34389372	     44.12956570	    -27.34623020	      8.00813585	     -0.36650253	     -8.75824459	     27.50890867	      9.63676489	      9.40225894	    -32.53805218	     -2.76422199	      5.08457631
